<!-- Generated by IcoMoon.io -->
<svg version="1.1" xmlns="http://www.w3.org/2000/svg" width="32" height="32" viewBox="0 0 32 32">
<title>hamburger</title>
<path d="M1.455 4.364h29.091c0.803 0 1.455 0.651 1.455 1.455s-0.651 1.455-1.455 1.455h-29.091c-0.803 0-1.455-0.651-1.455-1.455s0.651-1.455 1.455-1.455z"></path>
<path d="M1.455 14.545h29.091c0.803 0 1.455 0.651 1.455 1.455s-0.651 1.455-1.455 1.455h-29.091c-0.803 0-1.455-0.651-1.455-1.455s0.651-1.455 1.455-1.455z"></path>
<path d="M1.455 24.727h29.091c0.803 0 1.455 0.651 1.455 1.455s-0.651 1.455-1.455 1.455h-29.091c-0.803 0-1.455-0.651-1.455-1.455s0.651-1.455 1.455-1.455z"></path>
</svg>
