<svg width="251" height="32" viewBox="0 0 251 32" fill="none" xmlns="http://www.w3.org/2000/svg">
<path d="M0 24.2856L0 19.0166H0.0302812C1.05984 21.0758 3.42178 23.468 6.783 23.468C9.26606 23.468 10.8102 22.1053 10.8102 20.1673C10.8102 18.4413 9.29612 17.3815 7.05553 16.2913L5.05697 15.3526C2.63447 14.1716 0.211969 12.809 0.211969 9.50834C0.211969 5.48093 3.72459 3.36124 7.69143 3.36124C9.53859 3.36124 11.8097 3.84574 13.1721 4.33024V9.02384H13.1421C11.9308 6.90415 10.0532 5.39009 7.4189 5.39009C5.42034 5.39009 3.72459 6.38937 3.72459 8.26681C3.72459 9.81115 5.23865 10.7499 7.2675 11.7189L9.26606 12.6879C11.9912 13.99 14.5047 15.5343 14.5047 18.7441C14.5047 23.3166 10.9315 25.4968 6.57103 25.4968C4.20909 25.4968 1.75631 24.982 0 24.2856Z" fill="black"/>
<path d="M13.6567 9.32683V9.29655H20.1975V9.32683C19.1982 9.72049 18.7743 10.3564 19.4405 11.9613L22.2867 18.8957L25.2544 11.9007C25.9509 10.3564 25.4965 9.72049 24.6486 9.32683V9.29655L29.4635 9.29655V9.32683C28.8577 9.69021 28.1007 10.5986 27.3741 12.2641L21.4087 25.6179H21.3179L15.5645 12.2641C15.0194 10.9923 14.4441 9.78105 13.6567 9.32683Z" fill="black"/>
<path d="M39.5469 15.2618C39.3955 12.3245 38.2446 10.659 36.2766 10.659C34.49 10.659 33.0363 12.2942 32.7032 15.2618L39.5469 15.2618ZM28.8879 17.4723C28.8879 12.597 31.9766 8.81185 36.4582 8.81185C40.9397 8.81185 43.6955 12.5667 43.3624 17.0483H32.6123C32.7639 21.3483 35.2165 22.8018 37.942 22.8018C40.3342 22.8018 41.8483 21.8025 43.1807 20.0765L43.2715 20.137C42.4236 23.1954 40.1221 25.5574 36.5188 25.5574C32.0372 25.5574 28.8879 22.4081 28.8879 17.4723Z" fill="black"/>
<path d="M55.8984 22.2569V14.7774C55.8984 12.7788 55.1414 11.4465 52.8097 11.4465C51.5076 11.4465 50.4781 11.9612 49.8422 12.5971V22.2569C49.8422 23.892 50.6598 24.6794 51.326 24.9822V25.0125H44.543V24.9822C45.2697 24.6794 46.0267 23.892 46.0267 22.2569V12.9908C46.0267 11.3556 45.2697 10.5683 44.543 10.2655V10.2352L49.7818 8.90284V11.6281C50.8415 10.1141 52.7189 8.90284 54.9597 8.90284C58.109 8.90284 59.7139 11.1739 59.7139 13.869V22.2569C59.7139 23.8618 60.5012 24.6491 61.1976 24.9822V25.0125L54.4149 25.0125V24.9822C55.1414 24.6491 55.8984 23.8618 55.8984 22.2569Z" fill="black"/>
<path d="M62.5598 24.5581V20.2279H62.5901C63.8619 22.287 65.588 23.6194 67.9499 23.6194C69.8273 23.6194 70.7358 22.6807 70.7358 21.53C70.7358 20.1068 69.5849 19.4708 67.8893 18.7441L66.6781 18.2596C63.8012 17.0483 62.469 15.9582 62.469 13.5054C62.469 10.6893 64.8612 8.75129 68.4041 8.75129C70.0696 8.75129 72.0377 9.23601 73.1278 9.62945V13.566H73.0977C71.7351 11.5979 70.1905 10.7198 68.4041 10.7198C66.9807 10.7198 65.7997 11.386 65.7997 12.5364C65.7997 13.566 66.8901 14.293 68.4947 14.9892L69.5849 15.4737C72.6738 16.8364 74.0364 17.8659 74.0364 20.561C74.0364 23.8616 71.0384 25.5574 67.8893 25.5574C65.9814 25.5574 64.0434 25.1032 62.5598 24.5581Z" fill="black"/>
<path d="M80.35 16.7457V22.2569C80.35 23.892 81.1676 24.6794 81.8338 24.9822V25.0125H75.0508V24.9822C75.7775 24.6794 76.5346 23.892 76.5346 22.2569V6.02612C76.5346 4.39094 75.7775 3.60362 75.0508 3.30081V3.27053L80.35 1.93816V16.4126L84.6197 11.9007C85.7401 10.75 85.8006 9.90212 84.6197 9.32678V9.29649H91.009V9.32678C90.1006 9.84156 88.6773 10.962 86.7696 12.8697L83.8929 15.7161L88.8287 22.1055C89.9797 23.559 91.1301 24.7096 91.8872 24.9822V25.0125L86.4365 25.0125L80.35 16.7457Z" fill="black"/>
<path d="M98.155 23.1349C99.2754 23.1349 100.275 22.7715 100.971 22.0145V16.5639L98.3668 17.412C96.0957 18.1385 95.1269 18.8955 95.1269 20.561C95.1269 22.0448 96.3079 23.1349 98.155 23.1349ZM101.062 22.9532C100.275 24.3764 98.6698 25.4363 96.5196 25.4363C93.8854 25.4363 91.584 23.9222 91.584 21.1363C91.584 17.6843 94.5515 16.5639 97.943 15.6859L100.971 14.8681V14.0505C100.971 11.9914 100.123 10.8107 97.7311 10.8107C95.46 10.8107 93.7642 12.2034 92.9164 13.324H92.8558V9.69004C94.2185 9.23604 96.5501 8.78182 98.2156 8.78182C102.727 8.78182 104.726 10.7198 104.726 13.6268V22.2567C104.726 23.8919 105.544 24.6792 106.21 24.9821V25.0123H101.062V22.9532Z" fill="black"/>
<path d="M121.592 23.0745C125.771 23.0745 128.981 20.7731 128.981 14.626C128.981 9.4479 126.589 5.75359 121.289 5.75359C120.32 5.75359 119.412 5.84443 118.746 6.02612V21.2576C118.746 22.8928 119.018 23.0745 121.592 23.0745ZM114.628 22.2569V6.57118C114.628 4.936 113.719 4.14868 112.992 3.84609V3.81559H122.228C127.921 3.81559 133.341 6.99512 133.341 14.0809C133.341 20.5308 128.708 25.0125 122.5 25.0125H112.992V24.9822C113.719 24.6794 114.628 23.892 114.628 22.2569Z" fill="black"/>
<path d="M140.942 23.1349C142.062 23.1349 143.062 22.7715 143.758 22.0145V16.5639L141.154 17.412C138.883 18.1385 137.914 18.8955 137.914 20.561C137.914 22.0448 139.095 23.1349 140.942 23.1349ZM143.849 22.9532C143.062 24.3764 141.457 25.4363 139.306 25.4363C136.672 25.4363 134.371 23.9222 134.371 21.1363C134.371 17.6843 137.338 16.5639 140.73 15.6859L143.758 14.8681V14.0505C143.758 11.9914 142.91 10.8107 140.518 10.8107C138.247 10.8107 136.551 12.2034 135.703 13.324H135.643V9.69004C137.005 9.23604 139.337 8.78182 141.002 8.78182C145.514 8.78182 147.513 10.7198 147.513 13.6268V22.2567C147.513 23.8919 148.33 24.6792 148.996 24.9821V25.0123H143.849V22.9532Z" fill="black"/>
<path d="M158.293 22.3779C159.262 22.3779 160.17 22.1053 160.867 21.5603V13.0513C160.867 11.9914 159.928 10.7499 157.929 10.7499C155.779 10.7499 153.902 12.3247 153.902 16.6549C153.902 20.2885 155.688 22.3779 158.293 22.3779ZM151.691 30.1904V26.3748H151.722C152.721 27.7377 154.689 29.0698 157.081 29.0698C159.534 29.0698 160.867 27.6771 160.867 24.7701V22.5898C159.958 23.9525 158.474 24.8609 156.476 24.8609C153.205 24.8609 149.965 22.1962 149.965 17.2906C149.965 11.8099 153.75 8.90295 158.02 8.90295C159.413 8.90295 160.957 9.17526 162.26 9.50836L164.682 8.96329V24.4976C164.682 29.282 160.806 31.0078 157.021 31.0078C154.871 31.0078 152.812 30.5538 151.691 30.1904Z" fill="black"/>
<path d="M174.796 23.68C177.128 23.68 178.944 21.9236 178.944 17.3815C178.944 13.536 177.067 11.4161 174.402 11.4161C173.312 11.4161 172.343 11.7794 171.616 12.4759V21.1666C171.616 22.3476 172.525 23.68 174.796 23.68ZM167.801 24.0736V6.026C167.801 4.39103 167.044 3.60372 166.317 3.30091V3.27063L171.616 1.93804V11.4161C172.676 9.96278 174.463 8.90294 176.552 8.90294C179.641 8.90294 182.942 11.5069 182.942 16.5639C182.942 22.3476 179.156 25.4666 174.493 25.4666C171.98 25.4666 169.194 24.6792 167.801 24.0736Z" fill="black"/>
<path d="M185.424 22.2569V6.02612C185.424 4.39094 184.667 3.60362 183.941 3.30081V3.27053L189.24 1.93816V22.2569C189.24 23.892 190.057 24.6794 190.724 24.9822V25.0125H183.941V24.9822C184.667 24.6794 185.424 23.892 185.424 22.2569Z" fill="black"/>
<path d="M198.215 23.1349C199.335 23.1349 200.335 22.7715 201.031 22.0145V16.5639L198.427 17.412C196.156 18.1385 195.187 18.8955 195.187 20.561C195.187 22.0448 196.368 23.1349 198.215 23.1349ZM201.122 22.9532C200.335 24.3764 198.73 25.4363 196.58 25.4363C193.945 25.4363 191.644 23.9222 191.644 21.1363C191.644 17.6843 194.612 16.5639 198.003 15.6859L201.031 14.8681V14.0505C201.031 11.9914 200.183 10.8107 197.791 10.8107C195.52 10.8107 193.824 12.2034 192.976 13.324H192.916V9.69004C194.279 9.23604 196.61 8.78182 198.276 8.78182C202.788 8.78182 204.786 10.7198 204.786 13.6268V22.2567C204.786 23.8919 205.604 24.6792 206.27 24.9821V25.0123H201.122V22.9532Z" fill="black"/>
<path d="M215.732 22.9835C216.792 22.9835 217.791 22.6201 218.518 21.8934V13.1724C218.518 12.0217 217.549 10.7499 215.339 10.7499C213.007 10.7499 211.19 12.5062 211.19 17.0181C211.19 20.8335 213.067 22.9835 215.732 22.9835ZM207.223 17.8357C207.223 12.052 210.978 8.90272 215.641 8.90272C216.58 8.90272 217.579 9.02384 218.518 9.20553V6.026C218.518 4.39103 217.761 3.6035 217.034 3.30069V3.27041L222.333 1.93804V22.2567C222.333 23.8616 223.151 24.649 223.817 24.9821V25.0123L218.579 25.0123V22.8926C217.519 24.437 215.672 25.4666 213.552 25.4666C210.463 25.4666 207.223 22.8926 207.223 17.8357Z" fill="black"/>
<path d="M235.421 15.2618C235.269 12.3245 234.118 10.659 232.15 10.659C230.364 10.659 228.91 12.2942 228.577 15.2618L235.421 15.2618ZM224.762 17.4723C224.762 12.597 227.85 8.81185 232.332 8.81185C236.813 8.81185 239.569 12.5667 239.236 17.0483H228.486C228.638 21.3483 231.09 22.8018 233.816 22.8018C236.208 22.8018 237.722 21.8025 239.054 20.0765L239.145 20.137C238.297 23.1954 235.996 25.5574 232.393 25.5574C227.911 25.5574 224.762 22.4081 224.762 17.4723Z" fill="black"/>
<path d="M242.264 21.6209V11.295H239.569V11.2041C241.113 10.1745 244.232 7.26755 245.988 4.69365H246.079V9.29639H250.076L249.471 11.295L246.079 11.295V20.5004C246.079 22.4082 246.745 23.0744 248.472 23.0744C249.017 23.0744 249.774 22.9532 250.228 22.7715V22.8321C249.319 24.225 247.442 25.406 245.534 25.406C243.415 25.406 242.264 24.3157 242.264 21.6209Z" fill="black"/>
</svg>
